<svg enable-background="new 0 0 175.747 105.125" height="244.252105" viewBox="0 0 175.747 105.125" width="409.413053" xmlns="http://www.w3.org/2000/svg"><path d="m34.577 5.652c-2.864-3.145-7.485-2.755-13.686 2.552-5.408 4.628-6.564 10.486-6.495 16.779.012 1.091-1.196 1.23-1.856.773-3.492-2.422-6.55-4.329-9.046-3.634-1.913.532-1.917 1.755-.155 1.856 4.732.271 7.324.955 9.046 2.32.896.709-.157 1.178-1.04.638-2.463-1.507-5.601-2.505-9.012-2.03-1.255.175-1.668 1.218-.911 1.66.784.458 7.847.12 9.494.815.698.294 1.031.433.85.928-.293.464-.52.189-1.16 0-3.403-1.006-6.948-1.187-9.947.224-1.155.543-.652 1.785.437 1.399 3.166-1.122 6.058-1.196 8.969-1.005 1.224.081.992.384.696 1.16-4.624 12.135-1.496 19.442 1.314 25.826-6.277 4.084-7.498 9.99-5.602 15.316 1.743 4.896 7.084 8.169 13.411 8.885-2.547 7.029-5.082 13.461-2.551 19.176-2.552.104-3.379 1.773-.851 2.166 3.721.574 7.528 1.112 11.211.387 2.665-.526 2.526-1.547-.232-2.32 5.097-2.926 10.316-7.127 15.619-10.747 2.629 4.123 7.7 8.255 15.619 11.443 1.655.666 1.764.735 0 1.005-.946.145-1.907.154-2.861.232-1.537.123-1.598 1.055.077 1.392 4.404.884 9.952.028 15.696.231 2.008.07 4.084-.813 6.65-.695 12.09 1.691 22.279 2.584 31.625 1.469 3.235-.386 6.563-1.703 10.979-1.236 4.622.487 9.467.944 14.689.695 1.808-.086 2.586.43 3.248.852 2.197 1.396 5.162.746 8.893-.619 2.441-.894 4.984-.164 7.578.928 2.492 1.051 5.205.773 7.964-.387 1.829 1.004 5.306.983 10.438.31 2.967-.39 2.758-1.159-.695-1.933.611-1.686 1.149-3.082 1.707-4.231.49-1.014 1.045-1.776.998-3.19-.246-7.586-8.34-11.01-14.846-11.922-5.977-.841-12.063.004-18.093 1.638 1.116-5.152-1.021-4.48-2.056-6.563-1.03-2.07-.053-3.334-2.074-5.456-1.714-1.801-4.401-3.157-7.082-3.213-1.035-.021-1.688-.302-1.855-1.235-.393-2.188-1.609-3.974-2.766-5.287-5.007-5.694-15.727-3.926-23.756-1.981-1.378.334-1.776-.112-2.319-1.933-.815-2.732-2.569-4.949-4.717-6.882 3.416-4.638-.76-10.325-4.64-9.278-1.217.328-1.512.185-2.86-.696-1.549-1.012-4.115-.614-6.108.619-.906.56-1.267.871-2.32.232-1.123-.682-2.577-.413-4.175.464-.039-6.443-1.302-12.371-5.258-17.165 1.927-4.298-2.829-8.923-6.34-8.273-1.349.25-2.526.36-3.943-.851-1.265-1.184-3.024-1.873-4.717-2.629 2.378-1.543 4.614-3.182 7.423-3.402 1.439-.113 1.953-1.07 1.544-1.496-.341-.355-.741-.318-1.369-.212-2.583.438-7.099 3.958-8.217 4.878-.563.069-.975-.033-.851-.464.426-1.477 3.833-3.551 6.263-4.871 2.164-1.176 1.73-2.161-.387-1.392-2.936 1.065-4.948 3.279-6.418 6.186-.244.172-.554.144-.541-.155.111-2.489 1.708-4.674 4.717-6.418 1.722-.998.946-1.913-.464-1.314-2.491 1.058-4.049 3.71-4.948 7.5-1.04.203-1.556-.36-1.237-1.469 1.33-4.63 1.701-8.292-.232-10.361-3.082-3.312-8.979-1.423-16.466 4.011zm60.609 84.204c.336-.345.342-.293.715.09l.963.986c.443 1.271-3.682.914-2.618-.112zm8.437-16.5c-1.371.172-1.73.859-2.07 2.691-.379 2.048-.279 2.466.674 2.381 1.877-.165 3.762-.275 5.643-.413 1.018-.156 1.839-.508 2.434-1.088 2.123-2.077 4.313-3.123 6.885-2.64.684.127.81.051.361-.983-.544-1.254-4.698-1.106-13.927.052z" fill="#010101"/><path d="m106.91 62.525c.613-.921 1.375-1.323 2.835-1.495 4.151-.494 8.178-.861 11.397-.104 4.703 1.104 5.785 2.967 9.221 12.601 1.419 3.979 2.712 8.115 3.639 10.735.322.913.413 1.259-.788 1.653-.506.166-1.179.631-.51.68 1.417.104 2.458-1.529 4.054-.836.938.406.776.689-.63 1.26l-3.071 1.023c-.781.261-.559 1.012.157.787 3.546-1.108 7.249-2.314 11.263-3.309 9.18-2.271 27.547-3.395 30.006 9.137.176.894-.361.975-.709.157-.646-1.524-1.334-2.853-2.362-3.623-.505-.378-.915-.021-.423.515 5.176 5.649.678 13.457-5.721 11.613-.451-.13-.815-.216-.235-1.181 2.108-3.504 1.065-6.593-1.417-9.293-.637-.692-.993-.472-.395.551 3.58 6.114 1.646 9.565-3.545 10.002-4.092.345-7.205-1.302-8.898-4.409-3.084 4.75-9.022 6.412-13.152 1.969-.667-.719-1.074-.654-.787.078.28.713.367.983-.709 1.023-6.094.229-12.67-.354-19.846-1.26-1.043-.133-1.475-.426-1.418-2.205.029-.98-.199-1.954-.395-2.914-.279-1.38.045-2.002.866-2.521 1.744-1.103 3.403-2.5 5.67-3.308 1.425-.507 1.681-2.017 1.183-4.804-.789-4.418-1.621-8.327-3.229-11.656-1.478-3.059-9.909-2.298-13.31-1.575-1.363.29-1.582.148-1.418-1.103.467-3.546 1.33-6.17 2.677-8.188z" fill="#f59e36"/><path d="m131.061 71.423c-.322-1.062-.002-.968.836-.837 6.576 1.027 9.593 7.363 5.195 10.988-.627.518-.498.895.12.537.823-.474 1.843-1.146 2.271-2.148 1.119-2.635 3.086 2.285 2.269 4.479-.415 1.114-1.188 1.294-2.209 1.313-.765.015-1.131.067-1.435-.238-.387-.394-.98-.631-1.852-.479-.629.111-.984-.209-1.193-.836-1.439-4.297-2.721-8.588-4.002-12.779z" fill="#f59e36"/><path d="m75.266 46.962c.2-1.89 1.171-2.96 2.995-3.201 2.117-.28 4.303.833 5.576 4.389 1.402 3.915-.506 6.854-3.717 6.867-2.457.01-3.692-2.555-4.027-5.111-.126-.957-.253-.796-.671 0-.867 1.649-1.83 1.556-1.394.465.397-.998 1.085-1.96 1.238-3.409z" fill="#f59e36"/><path d="m83.115 44.742c-.368-.439-.279-1.045.31-1.239 5.09-1.679 8.042 1.145 7.693 7.229-.244 4.259-2.876 6.144-6.351 4.597-.683-.306-.845-.48-.517-.981 1.843-2.809 1.977-5.893-1.135-9.606z" fill="#f59e36"/><path d="m91.271 44.897c-.418-.943-.291-1.152.621-1.084 4.029.297 6.318 7.021 1.549 8.881-.902.352-1.361-.204-1.239-.929.353-2.094.176-4.387-.931-6.868z" fill="#f59e36"/><path d="m116.78 75.267c1.596.183 2.063.801 2.545 2.761.604 2.446 1.297 5.278 2.045 8.211.442 1.737-.048 2.191-1.327 2.618-2.271.759-4.215 2.37-6.131 3.979-.666-.526-.846-1.354-.432-2.438.554-1.446.664-2.721 0-3.657-.517-.73-.93-.287-.789.86.533 4.301-1.402-.153-2.223-1.291-.783-1.089-1.103-.794-.431.646 2.226 4.762 2.938 7.656 3.371 9.539 1.019 4.441-.576 6.133-4.733 6.381-10.313.617-20.189-.23-29.546-3.154-1.817-.566-3.305-1.352-4.59-2.151-.373-.23-.607.029-.287.358.536.553 1.197.979 1.864 1.363.538.309.976.664 0 .646-1.39-.028-2.393-.78-3.227-1.506-.561-.488-1.022-.372-.717.196.432.806.252.676-1.075.592-.955-.061-.964.577.143.646 2.434.149 2.799.39.933.357-1.004-.016-1.955.09-2.958.09-1.145.145-1.213.664.215.807 1.77.179 2.147.539.646.699-1.481.158-2.882-.593-4.572-.662-4.059-1.337-7.816-2.158-12.765-5.522-2.712-1.843-5.282-3.476-7.488-5.558-.617-.584-1.025-1.517-1.62-2.115.741-.741 1.482-1.482 2.223-2.225.811-1.076.521-1.546-.359-.717-4.493 4.232-25.817 21.363-27.538 12.693-.953-4.799.124-10.17 3.083-16.424.358-.754.552-.979 1.148-1.004l1.864-.07c1.067-.041.892-.535-.358-.574-4.125-.128-8.059-.99-11.618-3.299-6.13-4.635-7.076-10.409-2.367-16.996.748-1.046 1.089-.893.623.174-.806 1.844-1.207 4.047-1.125 6.495.053 1.612.625 1.849.717.574.252-3.503.808-6.859 3.442-9.896 1.523-1.756 3.311-2.712 5.378-2.51 5.91.578-1.461 9.563-1.139 13.074.27 2.937 1.947 3.12 2.86 1.125 1.354-2.958 2.654-5.496 4.805-7.101 3.715-3.117 6.356.336 6.327 1.319-.082 2.722-3.486 6.319-4.463 7.86-.938 1.478-.993 1.558.43.572 3.133-2.166 6.352-3.137 9.825-2.438 3.864.777 4.301 3.656.748 5.746-4.808 2.828-6.926 8.232-7.345 13.115-.096 1.123.485.925.86-.646.779-3.251 1.794-6.193 3.341-8.688.258-.416.481-.646.87-.949 2.539-1.982 6.313-3.611 5.614-6.57-.194-.82-.101-1.379.502-1.578 1.002-.33 1.845-.802 2.582-1.435.525-.451.786-.142 1.362 0 1.416.349 2.416-.554 3.103-1.323.895-1.002.751-1.207-.28-.509-2.401 1.629-2.984.961-.671-.679.922-.652 1.172-1.658-.574-.357-1.754 1.307-5.593 4.417-7.92 3.355-.534-.244-.507-.395-1.111-.373-2.253.076-1.166-1.981-5.598-2.051-1.135-.019-1.415.063-.717-1.22 1.133-2.08.375-3.89-1.937-5.021-3.374-.752-5.912.552-7.817 2.797-.617.728-.591.806-1.076.145-.621-.85-.84-1.396-.072-1.436.484-.024 1.317.703.678-.495-.229-.429-.25-.408-.091-.865 2.194-6.341-2.614-7.743-7.042-5.737-1.551.701-1.659.896-2.582-.574-1.103-1.757-1.149-3.8.072-1.004.638 1.459.966.537.861-.502-1.163-3.16-1.71-6.493-1.793-10.47-.035-1.67-.728-1.718-.861-.215-.202 2.283-.659 2.175-.752.344-.077-1.518.166-4.609.465-5.22.479-.979.627-.503.86 1.219.058.429.201.104.543-1.146 1.109-4.051 3.421-6.785 4.549-9.611.257-.644-2.07 1.707-2.438 1.147-.316-.48.417-1.147 1.147-1.721.669-.512.769-1.568.717-3.012-.302-8.385 4.13-14.069 11.905-17.712-5.586 6.32-7.078 13.477-6.455 20.94.059.7.352 1.043.861.144 1.376-2.432 2.461-2.602 2.295-.789-.296 3.237-.31 5.716.144 7.889.118.904-.308.698-1.363.501-3.205-.596-6.383 1.612-8.006 6.328-.984 2.86-1.021 5.488-.097 7.226.475.894 1.125.9 1.004-.43-.093-1.016.011-1.02.861-.646.889.393 1.578.669 2.007 1.363.452.694 1.321 1.074 2.51 0 .843-.762.46-.995-.756-.502-1.756.711-2.158-.235-.392-.717 2.238-.611.479-1.538-.422-.958-.503.323-1.007-1.435-1.339-1.924l3.727-1.165c.23.718.739 1.127 1.483.964.77-.169.365.505.459 2.062.373 6.097 3.724 10.86 9.64 12.958 6.28 2.228 12.416 1.363 17.915-2.409 1.534-1.054 3.276-2.425 4.568-4.618.61-1.035.849-1.772 1.644-1.245 1.036.356 1.994.586 2.845.803 1.496.381 2.764.013 3.928-1.125 4.195-4.102 6.294-8.4 5.566-12.796-.601-3.626-2.065-6.48-3.923-9.01.518-.201.83-.73 1.002-1.485l-.08-1.285 2.485.723c-.014.448-.175 1.087-1.042 1.526-.548.277-.542.653.16.441 1.453-.438 2.458-.249 1.362.361-1.356.756-1.701.5-1.202 1.205.882 1.245 1.109 1.704 1.082.883-.043-1.306 0-1.552.641-.563.228.429.491.839.682 1.286.755 1.771.49-1.357 1.162-.521l.681 1.606c.278.654-.891 1.231-.441 2.41.786 2.057.856 4.949.962 7.951.06 1.679-.15 1.583.602.16.279-.528.857-.207.4 1.084-.303.857-.187 1.818-.441 2.69-.313 1.075-.424.655-.601.121-.172-.522-.792-.521-.922.121-.292 1.447-.349 2.133-.841.883-.252-.638-.571-.63-.881.201-.407 1.087-.963 1.872-1.323 2.731-.384.916.09 1.431.841.281 1.043-1.597 1.594-1.681 1.082-.201-.621 1.796-3.322 2.842-5.971 4.337-1.307.736-1.135.578-.441-1.285.382-1.026.061-1.886-.886.038-.447.907-1.724 1.903-3.202 3.054-.65.506-.812 1.408.12.805 2.974-1.93 3.093-1.66.682.643-1.349 1.287-.816 1.646.08.963 3.981-3.027 7.908-5.52 11.983-7.147.937-.375 1.165-.165 1.483.562.641 1.465 1.904 2.425 3.487 3.03 1.025.394 2.197.418 3.246.021.79-.299 1.281.09 2.004.684.955.781 2.448.514 4.088-.058 1.205-.418 2.264-1.011 3.045-2.231.436-.68.639-.992 1.242-.764 2.048.775 2.217-1.218 3.566.481 6.914 8.702 5.793 19.062 1.684 28.913-1.051 2.521-2.648 5.222-4.85 7.671-1.097 1.22-4.613-.003-6.012-.241-1.324-.227-1.676.178-.681.684 4.988 2.527 11.813 2.418 17.193 1.605.904-.137 1.362-.993-.24-.924-1.602.068-3.065.054-4.487.12-.479.022-.685-.128-.882-.964-.164-.69-.586-1.256-1.202-1.606-.53-.3-.521-.983.267-1.979 1.481-1.877 2.94-4.187 3.781-7.135.182-.635.227-.643 1.042-.684 2.231-.112 4.444-.439 6.731-.361 1.021.035 1.677-.423 2.205-1.044 2.171-2.542 4.208-2.939 6.14-2.717z" fill="#f59e36"/><path d="m30.303 18.303c8.251-4.388 20.985 6.839 22.25 22.342.044.547-.115.951-.463 1.113-5.857 2.713-11.741 4.351-17.614 5.284-.722.115-1.298-.047-1.762-.464-8.18-7.337-10.745-23.843-2.411-28.275z" fill="#f59e36"/><path d="m38.307 16.941c-.756-.352-.636-.717.062-1.239 6.828-5.104 13.328.046 18.912 6.998 3.336 4.153 4.154 8.961 4.45 13.438.036.532-.007 1.023-.433 1.239l-6.86 3.468c-.7.354-1.109.11-1.112-.434-.03-5.249-1.677-10.384-4.944-15.234-3.154-4.68-6.641-6.64-10.075-8.236z" fill="#f59e36"/><path d="m35.497 48.861c.887.445 1.76 1.124 2.914 1.484 1.923.601 4.416.724 7.141.485 2.437-.213 3.878-1.312 4.423-2.661.276-.682.776-1.07 1.313-1.52.792-.663 1.15-1.66 1.21-2.799.073-1.415-.222-1.22-1.037-.863-1.892.828-3.373 1.563-4.285 2.729-.735.941-2.049 1.428-3.663.829-.588-.218-.805-.232-1.451-.035-2.125.65-3.932.879-5.486 1.099-2.35.333-2.746.415-1.079 1.252z" fill="#fff"/><path d="m61.343 39.29c-.728 1.686-1.27 3.316-2.522 4.699-.478.527-1.229.64-2.211.622-.842-.016-1.715.089-2.522.484-.72.352-.877-.018-.794-1.348.066-1.069.229-1.355.967-1.175 1.368.334 2.451-.357 3.041-1.589.244-.509.582-.75 1.037-1.071.888-.629 3.797-2.458 3.004-.622z" fill="#fff"/><path d="m54.048 46.465c-2.274 1.004-3.816 2.505-3.442 3.353.374.847 2.522.719 4.796-.286s3.816-2.506 3.442-3.353c-.373-.847-2.521-.719-4.796.286z" fill="#fdd1b0"/><path d="m21.897 35.191c3.165-.146 3.349 2.472 4.415 4.592 4.17 8.292 12.744 15.172 22.317 10.818.751-.342.869-.421 1.206 0 .818 1.022 2.499 1.297 4.717.524 1.355-.472 1.214-.32 0 1.101-4.199 4.915-10.776 7.004-16.646 6.122-7.791-1.17-14.303-7.244-12.759-16.291.151-.886-.209-1.01-.681-.157-.792 1.429-1.264.737-.786-.629.277-.792-.057-.927-.734-.367-.948.785-1.054 1.672-.197 2.581-.839 1.363-2.182 2.38-4.153 2.347-3.397-.058-4.772-3.956-1.101-8.282 1.31-1.545 2.856-2.287 4.402-2.359z" fill="#fbef9a"/><path d="m59.568 44.267c-.603.558-1.049.689-.336 1.377.939.908.338 2.118-1.038 3.514-.507.514-.259.605.673.703 2.429.255 4.386.124 6.032-1.771 3.11-3.579 5.124-7.208 4.236-11.638-.795-3.973-2.479-6.685-4.628-8.602-.854-.762-.288-.986.084-.787 1.58.849 2.081-.17.758-1.124-.962-.693-.339-.94.224-.731.785.292 1.373.917 1.536 1.791 1.669.595 3.347-.653 3.064-3.252-.278-2.568-2.515-4.341-4.769-4.582-2.796-.3-4.561 1.38-5.892 4.048-.248.496-.002.929.393 1.658 1.348 2.486 2.353 5.237 2.806 8.714.701 5.385-.795 8.509-3.143 10.682z" fill="#fbef9a"/><path d="m22.155 36.523c.261 0 .472.241.472.537 0 .297-.211.538-.472.538-.26 0-.472-.241-.472-.538 0-.296.211-.537.472-.537z" fill="#010101"/><path d="m18.819 38.5c.302 0 .547.222.547.494 0 .273-.245.495-.547.495s-.547-.222-.547-.495c-.001-.272.245-.494.547-.494z" fill="#010101"/><path d="m17.178 42.541c.308 0 .558.221.558.494s-.25.495-.558.495-.558-.222-.558-.495.25-.494.558-.494z" fill="#010101"/><path d="m61.819 22.346c.307 0 .555.233.555.521s-.249.521-.555.521-.556-.233-.556-.521.25-.521.556-.521z" fill="#010101"/><path d="m65.585 20.607c.277 0 .503.257.503.574 0 .316-.226.573-.503.573-.278 0-.503-.257-.503-.573-.001-.317.225-.574.503-.574z" fill="#010101"/><path d="m68.378 22.659c.307 0 .556.28.556.626s-.249.626-.556.626-.555-.28-.555-.626.249-.626.555-.626z" fill="#010101"/><path d="m22.122 23.093c.057 1.333.038 1.472.756.756.356-.354.855-.285 1.163-.116.38.208.46-.463 1.163-1.512 3.078-4.597 6.903-6.655 10.293-5.932.819.175.926-.053.756-.989-.208-1.146-.155-2.326-.232-3.489-1.164-1.039-1.25 1.987-1.279 1.454-.522-2.334-.771-3.994-1.338-5.175-.292-.611-.78-.329-.756.523.042 1.487-.005 2.708-.581 3.997-.401.898-.687 1.011-.699.074l-.058-4.478c.057-1.015-.3-1.071-.64 0-.998 3.151-1.827 5.755-3.082 6.92.336-2.407 1.04-4.706 1.745-7.036.341-1.13-.16-1.197-.931-.059-1.851 2.733-3.327 5.833-4.675 9.063-.473 1.134-.255.126-.201-.446.084-.895.24-1.791.443-2.686.283-1.249.414-1.546-.208-.156-1.13 2.53-1.805 5.417-1.639 9.287z" fill="#f59e36"/><path d="m35.455 7.751c-.269-.886-.239-1.222.214-1.55 3.23-2.345 5.922-3.898 8.233-4.491.823-.21.709-.044.053.535-3.101 2.736-5.184 6.259-6.68 10.212-.297.786-.226.555-.438-.144z" fill="#f58320"/><path d="m37.963 13.587c-.423.915-.277 1.232.699.768 3.397-1.616 6.755-2.438 10.221-.467.667.379.859.103.966-.601.126-.836.377-1.668.699-2.501.45-1.165.178-1.268-.799-.3l.733-5.137c.214-1.503-.362-1.391-.733.066-.385 1.515-.821 2.53-1.797 3.536-.103-1.499.928-3.763.754-4.983-.108-.76-.253-.256-.472.123-.887 1.538-1.999 2.85-3.146 4.127.424-1.859 1.033-3.57 1.777-5.173.254-.548.846-1.351-.023-.452-2.063 2.134-3.929 4.844-5.782 7.627-.716 1.075-.307-.977-.04-2.172.149-.665.331-1.008-.177-.282-1.211 1.73-1.944 3.798-2.88 5.821z" fill="#f59e36"/><path d="m20.894 63.427c.468.331.649.678.544.819-.026.035.134.201.053.205-.243.014-.69-.115-1.088-.401-.775-.558-.752-1.074-.312-1.046.201.013.335.092.803.423z" fill="#f58320"/><path d="m18.731 66.292c.136-.375.203-.922.874 0 .269.369.329.647 0 1.313-.486.98-1.102 1.299-1.274.547-.143-.618.184-1.264.4-1.86z" fill="#f58320"/><path d="m19.798 64.917c.25.178.347.363.291.438-.014.021.072.108.028.11-.13.007-.369-.063-.582-.215-.415-.299-.402-.575-.167-.561.108.009.179.052.43.228z" fill="#f58320"/><path d="m33.058 66.636c.942.147.999.678-.094.755-2.529.178-2.722-1.75.094-.755z" fill="#f58320"/><path d="m30.642 67.858c.342-.29.609-.197.329.189-.649.897-1.614.56-.329-.189z" fill="#f58320"/><path d="m51.08 14.197 1.25.297c.706.167.658.505-.066.758.814.698 1.807 1.324 3.06 1.847 1.141.516.937 1.203-.395.758-1.49-.498-2.673-1.668-3.883-2.67-.699-.582-.574-1.134.034-.99z" fill="#f59e36"/><path d="m58.583 22.439c.648.789.778.152.065-.923-.273-.413.153-.593.362-.297.479.86 1.118.072.921-.659.526.077.833-.197.921-.824.625-.055 1.237-.544.823-.824l-1.316-.89c-.469-.317-.741.024-.395.56.341.53.183.774-.592.495-.389-.14-.549-.708-.955-.792-.744-.152-.77.419-.46.626.657.441 1.272.813 1.646 1.484-1.11-.25-1.969-.782-2.797-1.286-.708-.43-1.076-.186-.395.726.335.448.916.715 1.974 1.055-1.427.047-.01 1.297.198 1.549z" fill="#f59e36"/><g fill="#010101"><path d="m14.538 31.942c-.802 1.719-.962 3.069-1.083 3.951-.113.79.396.879.685-.318s1.115-3.197 1.691-4.464c.619-1.217 1.479-1.944 1.223-2.248-.258-.304-1.546 1.046-2.516 3.079z"/><path d="m15.916 32.517c-.47 1.155-.381 1.424-.437 2.091s.113.868.537-.179c.35-1.053.619-2.039.972-2.681.313-.608.532-1 .356-1.127-.21-.167-1.11 1.214-1.428 1.896z"/><path d="m18.216 32.484c-.213.737-.193 1.222-.051 1.325s.248-.432.37-.815c.123-.382.376-.875.433-1.202.118-.322-.157-.647-.35-.15-.225.524-.289.579-.402.842z"/><path d="m49.154 93.588c2.415 1.675 3.482 2.24 4.823 2.837 1.306.528 1.329-.259.091-.821-1.203-.496-3.926-2.27-5.488-3.955-1.594-1.584-2.495-2.494-2.946-3.033-.419-.644-1.338-.427-.435.654.8 1.048 3.506 3.949 3.955 4.318z"/><path d="m49.954 92.142c1.727 1.343 3.204 1.869 4.166 2.231.859.328 1.09-.222-.183-.853-1.273-.632-3.309-2.071-4.587-3.046-1.21-1.008-1.807-2.161-2.214-1.95-.408.212.779 2.008 2.818 3.618z"/><path d="m51.411 91.302c1.484 1.038 1.893.998 2.82 1.293.927.294 1.266.118-.08-.819-1.378-.835-2.687-1.533-3.482-2.24-.761-.639-1.245-1.076-1.481-.867-.304.242 1.359 1.961 2.223 2.633z"/><path d="m53.107 90.424c1.205.666 2.062.824 2.297.615.237-.207-.657-.604-1.278-.973-.62-.367-1.38-1.006-1.93-1.236-.518-.334-1.196.017-.402.553.829.604.899.739 1.313 1.041z"/><path d="m54.324 89.452c.793.534 1.336.254 1.06.053s-.791-.364-1.103-.635c-.379-.234-.577.213.043.582z"/><path d="m12.512 43.401c.111-1.646.509-2.329.961.074.394 2.095.869 4.247.928 6.377.127 4.637-2-4.806-1.889-6.451z"/><path d="m61.635 99.633c2.409.74 3.429.928 4.679 1.066 1.205.094 1.02-.557-.138-.694-1.112-.095-3.799-.837-5.514-1.811-1.714-.881-2.687-1.391-3.196-1.715-.51-.417-1.205-.001-.186.647.927.654 3.892 2.322 4.355 2.507z"/><path d="m61.914 98.243c1.76.649 3.104.696 3.984.743.787.046.834-.463-.371-.649s-3.243-.834-4.541-1.299c-1.25-.51-2.038-1.297-2.316-1.02-.277.278 1.159 1.436 3.244 2.225z"/><path d="m62.887 97.177c1.482.464 1.807.325 2.641.325.833 0 1.065-.231-.278-.648-1.344-.324-2.595-.557-3.429-.928-.788-.324-1.297-.557-1.437-.325-.184.278 1.623 1.252 2.503 1.576z"/><path d="m64.046 96.019c1.158.231 1.9.142 2.039-.092.139-.231-.695-.324-1.297-.463-.603-.14-1.39-.466-1.9-.511-.509-.14-.973.323-.186.556.834.279.927.371 1.344.51z"/><path d="m64.788 94.909c.788.23 1.158-.14.88-.231-.278-.093-.741-.093-1.065-.232-.371-.094-.418.323.185.463z"/><path d="m36.153 65.616c.924.51 1.581.633 1.762.474.181-.16-.504-.466-.979-.746-.476-.282-1.059-.771-1.48-.949-.396-.256-.917.013-.309.424.634.461.688.564 1.006.797z"/><path d="m73.336 39.073c-.105-1.806-.341-2.099-.631-3.004-.291-.905-.576-1.058-.479.578.18 1.596.41 3.053.371 4.116-.013.993-.042 1.645.212 1.697.312.082.545-2.294.527-3.387z"/><path d="m71.905 38.309c-.197-1.356-.538-2.121-.791-2.173-.254-.052-.046.893.04 1.605.087.713.073 1.706.209 2.279.054.612.626.918.558-.036-.044-1.023.006-1.163-.016-1.675z"/><path d="m69.879 48.986c.581-1.042.734-1.744.568-1.905-.166-.162-.517.6-.835 1.139-.319.539-.866 1.225-1.071 1.691-.289.454-.017.948.446.25.519-.735.633-.808.892-1.175z"/></g></svg>